<?xml version="1.0" standalone="no"?>
<!DOCTYPE svg PUBLIC "-//W3C//DTD SVG 20010904//EN"
 "http://www.w3.org/TR/2001/REC-SVG-20010904/DTD/svg10.dtd">
<svg version="1.0" xmlns="http://www.w3.org/2000/svg"
 width="512.000000pt" height="512.000000pt" viewBox="0 0 512.000000 512.000000"
 preserveAspectRatio="xMidYMid meet">

<g transform="translate(0.000000,512.000000) scale(0.100000,-0.100000)" stroke="none">
<path d="M2372 5109 c-222 -24 -457 -104 -644 -220 -341 -211 -611 -549 -721
-904 -64 -206 -77 -342 -77 -822 l0 -371 -102 -4 c-86 -2 -112 -7 -160 -30
-68 -31 -133 -95 -168 -164 l-25 -49 0 -1150 0 -1150 26 -50 c35 -66 101 -130
169 -163 l55 -27 1835 0 1835 0 55 27 c68 33 134 97 169 163 l26 50 0 1150 0
1150 -25 49 c-35 69 -100 133 -168 164 -48 23 -74 28 -159 30 l-103 4 0 371
c0 480 -13 616 -77 822 -110 355 -380 693 -721 904 -291 181 -651 258 -1020
220z m363 -704 c180 -32 357 -128 491 -266 117 -122 188 -246 237 -414 19 -64
21 -105 24 -502 l4 -433 -931 0 -931 0 4 433 c4 471 4 475 70 634 86 210 302
420 518 503 150 58 343 75 514 45z"/>
</g>
</svg>
